<svg id="Ebene_1" data-name="Ebene 1" xmlns="http://www.w3.org/2000/svg" xmlns:xlink="http://www.w3.org/1999/xlink" viewBox="0 0 90 54"><defs><clipPath id="clip-path"><circle cx="44.5" cy="26.5" r="27" style="fill:none"/></clipPath></defs><title>germany</title><path d="M9,27H9Z"/><path d="M18,27h0Z"/><path d="M18,36h0Z" style="fill:#fff"/><path d="M27,36h0Z" style="fill:#fff"/><path d="M35.5,31v0Z" style="fill:red;stroke:red;stroke-miterlimit:10"/><g style="clip-path:url(#clip-path)"><rect x="0.5" y="0.5" width="89" height="17"/><path d="M89,1V17H1V1H89m1-1H0V18H90V0Z"/><rect x="0.5" y="18.5" width="89" height="17" style="fill:red"/><path d="M89,19V35H1V19H89m1-1H0V36H90V18Z" style="fill:red"/><rect x="0.5" y="36.5" width="89" height="17" style="fill:#ff0"/><path d="M89,37V53H1V37H89m1-1H0V54H90V36Z" style="fill:#ff0"/></g></svg>