<svg id="Ebene_1" data-name="Ebene 1" xmlns="http://www.w3.org/2000/svg" xmlns:xlink="http://www.w3.org/1999/xlink" viewBox="0 0 105.35 70.03"><defs><clipPath id="clip-path" transform="translate(20.09 5.61)"><ellipse cx="31.5" cy="28" rx="31.5" ry="28" style="fill:none"/></clipPath></defs><title>uk</title><g style="clip-path:url(#clip-path)"><rect x="2.59" y="5.11" width="44" height="25" style="fill:blue"/><path d="M26,0V24H-17V0H26m1-1H-18V25H27V-1Z" transform="translate(20.09 5.61)" style="fill:blue"/><rect x="2.56" y="-12.6" width="3" height="52.41" transform="translate(10.34 15.93) rotate(-60.01)" style="fill:red"/><path d="M-17.7-.11,26.82,25.6l-1,1.73L-18.7,1.62l1-1.73m-.37-1.36-2,3.46L26.19,28.7l2-3.47L-18.07-1.47Z" transform="translate(20.09 5.61)" style="fill:#fff"/><rect x="2.59" y="40.11" width="44" height="25" style="fill:blue"/><path d="M26,35V59H-17V35H26m1-1H-18V60H27V34Z" transform="translate(20.09 5.61)" style="fill:blue"/><rect x="-20.15" y="46.34" width="52.41" height="3" transform="translate(-1.38 13.86) rotate(-27.6)" style="fill:red"/><path d="M28.38,35l.93,1.78L-16.26,60.63l-.92-1.77L28.38,35m.42-1.34L-18.53,58.44-16.68,62,30.66,37.24,28.8,33.7Z" transform="translate(20.09 5.61)" style="fill:#fff"/><rect x="56.59" y="40.11" width="45" height="25" style="fill:blue"/><path d="M81,35V59H37V35H81m1-1H36V60H82V34Z" transform="translate(20.09 5.61)" style="fill:blue"/><rect x="56.59" y="5.11" width="45" height="25" style="fill:blue"/><path d="M81,0V24H37V0H81m1-1H36V25H82V-1Z" transform="translate(20.09 5.61)" style="fill:blue"/><rect x="31.33" y="10.27" width="55.46" height="3" transform="translate(21.36 34.31) rotate(-27.6)" style="fill:red"/><path d="M82.73-1.74,83.66,0,35.39,25.27l-.93-1.78L82.73-1.74m.42-1.35-50,26.16L35,26.62,85,.46,83.15-3.09Z" transform="translate(20.09 5.61)" style="fill:#fff"/><rect x="59.56" y="19.63" width="3" height="52.41" transform="translate(10.93 81.43) rotate(-60.01)" style="fill:red"/><path d="M39.3,32.12,83.82,57.83l-1,1.73L38.3,33.85l1-1.73m-.37-1.37-2,3.47L83.19,60.93l2-3.47L38.93,30.75Z" transform="translate(20.09 5.61)" style="fill:#fff"/><rect x="-21.7" y="42.85" width="52.23" height="3" transform="translate(0.05 12.7) rotate(-27.6)" style="fill:#fff"/><path d="M26.66,31.59l.93,1.78L-17.82,57.1l-.92-1.77,45.4-23.74m.42-1.34L-20.09,54.91l1.85,3.54L28.94,33.79l-1.86-3.54Z" transform="translate(20.09 5.61)" style="fill:#fff"/><rect x="32.84" y="13.9" width="54.13" height="3" transform="translate(19.78 35.11) rotate(-27.6)" style="fill:#fff"/><path d="M83,2.21,83.91,4,36.82,28.59l-.93-1.77L83,2.21M83.4.86,34.55,26.4l1.85,3.54L85.26,4.4,83.4.86Z" transform="translate(20.09 5.61)" style="fill:#fff"/><rect x="3.56" y="-17.16" width="3" height="54.13" transform="translate(14.04 14.94) rotate(-60)" style="fill:#fff"/><path d="M-17.45-4.24l46,26.56-1,1.74-46-26.57,1-1.73m-.36-1.37-2,3.47L27.93,25.42l2-3.46L-17.81-5.61Z" transform="translate(20.09 5.61)" style="fill:#fff"/><rect x="57.56" y="21.84" width="3" height="54.13" transform="translate(7.27 81.2) rotate(-60)" style="fill:#fff"/><path d="M36.55,34.76l46,26.56-1,1.74-46-26.57,1-1.73m-.36-1.37-2,3.47L81.93,64.42l2-3.46L36.19,33.39Z" transform="translate(20.09 5.61)" style="fill:#fff"/><rect x="1.59" y="31.11" width="101" height="8" style="fill:red"/><path d="M82,26v7H-18V26H82m1-1H-19v9H83V25Z" transform="translate(20.09 5.61)" style="fill:#fff"/><rect x="47.59" y="5.11" width="8" height="27" style="fill:red"/><path d="M35,0V26H28V0h7m1-1H27V27h9V-1Z" transform="translate(20.09 5.61)" style="fill:#fff"/><rect x="47.59" y="39.11" width="8" height="26" style="fill:red"/><path d="M35,34V59H28V34h7m1-1H27V60h9V33Z" transform="translate(20.09 5.61)" style="fill:#fff"/><rect x="48.59" y="27.11" width="6" height="16" style="fill:red"/><path d="M34,22V37H29V22h5m1-1H28V38h7V21Z" transform="translate(20.09 5.61)" style="fill:red"/><rect x="44.59" y="32.11" width="13" height="2" style="fill:red"/><path d="M37,27v1H25V27H37m1-1H24v3H38V26Z" transform="translate(20.09 5.61)" style="fill:red"/></g></svg>